HIERARCHY
ROOT Hips
{
	OFFSET 0.00 0.00 0.00
	CHANNELS 6 Xposition Yposition Zposition Xrotation Yrotation Zrotation
	JOINT LeftUpLeg
	{
		OFFSET 3.25772 0.00000 0.00000
		CHANNELS 3 Xrotation Yrotation Zrotation
		JOINT LeftLeg
		{
			OFFSET 0.00000 -15.35355 0.00000
			CHANNELS 3 Xrotation Yrotation Zrotation
			JOINT LeftFoot
			{
				OFFSET 0.00000 -16.48949 0.00000
				CHANNELS 3 Xrotation Yrotation Zrotation
				JOINT LeftToeBase
				{
					OFFSET 0.00000 -1.72224 6.42750
					CHANNELS 3 Xrotation Yrotation Zrotation
					End Site
					{
						OFFSET 0.00000 0.00000 2.95275
					}
				}
			}
		}
	}
	JOINT RightUpLeg
	{
		OFFSET -3.25772 0.00000 0.00000
		CHANNELS 3 Xrotation Yrotation Zrotation
		JOINT RightLeg
		{
			OFFSET 0.00000 -15.35355 0.00000
			CHANNELS 3 Xrotation Yrotation Zrotation
			JOINT RightFoot
			{
				OFFSET 0.00000 -16.48949 0.00000
				CHANNELS 3 Xrotation Yrotation Zrotation
				JOINT RightToeBase
				{
					OFFSET 0.00000 -1.72224 6.42750
					CHANNELS 3 Xrotation Yrotation Zrotation
					End Site
					{
						OFFSET 0.00000 0.00000 2.95275
					}
				}
			}
		}
	}
	JOINT Spine
	{
		OFFSET 0.00000 0.03937 0.00000
		CHANNELS 3 Xrotation Yrotation Zrotation
		JOINT Spine1
		{
			OFFSET 0.00000 10.14986 0.00000
			CHANNELS 3 Xrotation Yrotation Zrotation
			JOINT Neck
			{
				OFFSET 0.00000 9.84250 0.00000
				CHANNELS 3 Xrotation Yrotation Zrotation
				JOINT Head
				{
					OFFSET 0.00000 4.54023 0.00000
					CHANNELS 3 Xrotation Yrotation Zrotation
					End Site
					{
						OFFSET 0.00000 4.52755 0.00000
					}
				}
			}
			JOINT LeftShoulder
			{
				OFFSET 0.00000 9.84250 0.00000
				CHANNELS 3 Xrotation Yrotation Zrotation
				JOINT LeftArm
				{
					OFFSET 7.21510 -0.00003 0.00000
					CHANNELS 3 Xrotation Yrotation Zrotation
					JOINT LeftForeArm
					{
						OFFSET 10.66411 -0.00004 0.00000
						CHANNELS 3 Xrotation Yrotation Zrotation
						JOINT LeftHand
						{
							OFFSET 8.93656 -0.00003 0.00000
							CHANNELS 3 Xrotation Yrotation Zrotation
							JOINT L_Wrist_End
							{
								OFFSET 3.93700 -0.00001 0.00000
								CHANNELS 3 Xrotation Yrotation Zrotation
							}
						}
					}
				}
			}
			JOINT RightShoulder
			{
				OFFSET 0.00000 9.84250 0.00000
				CHANNELS 3 Xrotation Yrotation Zrotation
				JOINT RightArm
				{
					OFFSET -7.21510 -0.00003 0.00000
					CHANNELS 3 Xrotation Yrotation Zrotation
					JOINT RightForeArm
					{
						OFFSET -10.66411 -0.00004 0.00000
						CHANNELS 3 Xrotation Yrotation Zrotation
						JOINT RightHand
						{
							OFFSET -8.93656 -0.00003 0.00000
							CHANNELS 3 Xrotation Yrotation Zrotation
							JOINT R_Wrist_End
							{
								OFFSET -5.41338 -0.00002 0.00000
								CHANNELS 3 Xrotation Yrotation Zrotation
							}
						}
					}
				}
			}
		}
	}
}
MOTION
Frames: 8
Frame Time: 0.008333
 -0.4453 33.9504 7.9783 -0.7562 -1.9397 -2.5225 7.1402 19.6749 5.4357 1.0385 -0.0000 0.0000 -2.0925 0.2026 1.9458 -33.9022 0.0000 0.0000 5.9886 3.7206 -0.2935 4.2917 -0.0000 0.0000 -1.0757 -6.0500 -0.1995 -31.1944 0.0000 -0.0000 -14.7974 0.0393 -2.7962 25.8320 3.9862 2.6504 -24.9429 -24.9928 5.2296 0.8755 -0.8838 -15.3036 8.4954 10.7245 15.9673 -23.7037 12.9503 -28.1579 -0.0000 -9.3350 -0.0000 -2.1899 4.1557 19.1315 -0.0000 -0.0000 0.0000 8.8356 -6.5849 -17.1265 -8.7271 -4.5960 26.2268 -0.0001 20.8790 0.0000 -20.7003 -13.2824 -18.0955 -0.0000 0.0000 -0.0000
 -0.4439 33.9494 7.9749 -0.7677 -1.9294 -2.5263 7.1088 19.8230 5.4351 1.0855 0.0000 0.0000 -2.2383 -0.0069 1.8002 -33.6377 0.0000 -0.0000 5.9905 3.6692 -0.2938 4.3032 -0.0000 0.0000 -1.0791 -6.0004 -0.1672 -31.1884 0.0000 -0.0000 -14.7725 0.0262 -2.7958 25.8163 3.9778 2.6617 -25.2044 -25.4045 4.7938 1.2903 -0.5526 -14.8187 8.5169 10.7421 15.9282 -23.7068 12.9250 -28.1415 -0.0000 -9.3683 -0.0000 -2.2255 4.1488 19.0926 -0.0000 -0.0000 0.0000 8.8230 -6.5615 -17.1333 -8.6910 -4.6152 26.1954 -0.0001 20.9028 0.0000 -20.7246 -13.3263 -18.1144 -0.0000 -0.0000 0.0000
 -0.4421 33.9500 7.9716 -0.7696 -1.9309 -2.5301 7.1195 19.7259 5.4303 1.0617 0.0000 -0.0000 -2.1872 0.1749 1.8556 -33.7692 0.0000 0.0000 5.9894 3.6430 -0.2903 4.2955 -0.0000 -0.0000 -1.0759 -5.9991 -0.1895 -31.2080 0.0000 0.0000 -14.7666 0.0233 -2.7948 25.8132 3.9779 2.6684 -25.2846 -25.5149 4.6910 1.4208 -0.4535 -14.7012 8.5088 10.7462 15.9137 -23.6758 12.9028 -28.1487 -0.0000 -9.3898 -0.0000 -2.2366 4.1718 19.1270 -0.0000 -0.0000 0.0000 8.8371 -6.5697 -17.1496 -8.7815 -4.6507 26.1895 -0.0001 20.9261 0.0000 -21.3212 -12.9465 -17.8166 -0.0000 0.0000 -0.0000
 -0.4418 33.9490 7.9691 -0.7720 -1.9295 -2.5298 7.1281 19.6748 5.4369 1.0574 -0.0000 -0.0000 -2.1968 0.2141 1.8611 -33.7388 0.0000 -0.0000 5.9881 3.7024 -0.2903 4.2946 -0.0000 0.0000 -1.0982 -6.0579 -0.1936 -31.1632 0.0000 -0.0000 -14.7670 0.0251 -2.7960 25.8176 3.9797 2.6679 -25.3033 -25.5531 4.6567 1.4766 -0.4064 -14.6473 8.4962 10.7457 15.8922 -23.7039 12.8894 -28.1118 -0.0000 -9.4582 -0.0000 -2.2432 4.1240 19.0669 -0.0000 -0.0000 0.0000 8.8219 -6.5629 -17.1595 -8.7708 -4.6565 26.1853 -0.0001 20.8970 0.0000 -21.3854 -12.8572 -17.8335 -0.0000 0.0000 -0.0000
 -0.4400 33.9503 7.9652 -0.7755 -1.9438 -2.5304 7.1371 19.6331 5.4412 1.0546 -0.0000 0.0000 -2.1127 0.2625 2.0657 -33.8645 0.0000 -0.0000 5.9945 3.8182 -0.2941 4.2756 -0.0000 0.0000 -1.0692 -6.1543 -0.1858 -31.1984 0.0000 -0.0000 -14.7649 0.0274 -2.7990 25.8257 3.9832 2.6690 -25.3171 -25.6258 4.6135 1.5052 -0.3642 -14.5773 8.5092 10.7489 15.8347 -23.7482 12.8750 -28.0400 -0.0000 -9.5381 -0.0000 -2.0048 3.9495 18.9695 -0.0000 0.0000 -0.0000 8.7979 -6.5509 -17.1503 -8.7399 -4.6373 26.1568 -0.0001 20.8850 0.0000 -21.4130 -12.9080 -17.8818 -0.0000 0.0000 -0.0000
 -0.4393 33.9493 7.9639 -0.7800 -1.9450 -2.5304 7.1353 19.6324 5.4381 1.0648 -0.0000 0.0000 -2.1233 0.2639 2.0660 -33.8777 0.0000 -0.0000 5.9932 3.8403 -0.2907 4.2819 -0.0000 0.0000 -1.0691 -6.1797 -0.1621 -31.2067 0.0000 0.0000 -14.7683 0.0270 -2.7994 25.8287 3.9820 2.6682 -25.3183 -25.6304 4.6129 1.5346 -0.3508 -14.5554 8.5465 10.7459 15.8248 -23.7095 12.8531 -28.0492 -0.0000 -9.5676 -0.0000 -1.8888 3.9874 18.9414 -0.0000 0.0000 -0.0000 8.8243 -6.5588 -17.1596 -8.7561 -4.6404 26.1468 -0.0001 20.8970 0.0000 -21.3870 -12.9065 -17.8239 -0.0000 0.0000 -0.0000
 -0.4376 33.9493 7.9606 -0.7862 -1.9462 -2.5312 7.1340 19.7161 5.4218 1.0596 -0.0000 -0.0000 -2.1979 0.1308 1.8314 -33.6908 0.0000 -0.0000 5.9897 3.8673 -0.2967 4.2936 -0.0000 0.0000 -1.0740 -6.1755 -0.1872 -31.2151 0.0000 0.0000 -14.7707 0.0251 -2.7969 25.8366 3.9813 2.6720 -25.3210 -25.6696 4.5897 1.5733 -0.3279 -14.5407 8.5353 10.7277 15.8072 -23.6925 12.8276 -28.0517 -0.0000 -9.5358 -0.0000 -1.9825 3.9620 18.9516 -0.0000 -0.0000 0.0000 8.8218 -6.5518 -17.1599 -8.7890 -4.6375 26.1231 -0.0001 20.8635 0.0000 -21.4030 -12.9029 -17.8804 -0.0000 0.0000 -0.0000
 -0.4370 33.9498 7.9569 -0.7945 -1.9682 -2.5341 7.1283 19.6768 5.4325 1.0795 0.0000 0.0000 -2.1452 0.2473 1.9824 -33.8533 0.0000 0.0000 5.9804 3.7850 -0.2943 4.2996 -0.0000 0.0000 -1.0626 -6.1001 -0.1602 -31.1862 0.0000 -0.0000 -14.7694 0.0242 -2.7966 25.8600 3.9828 2.6760 -25.3366 -25.7070 4.5548 1.5806 -0.2830 -14.4821 8.5404 10.7289 15.7949 -23.6694 12.8337 -28.0697 -0.0000 -9.5235 -0.0000 -2.0382 3.9556 18.9207 -0.0000 0.0000 -0.0000 8.7767 -6.5477 -17.1815 -8.7868 -4.6229 26.1282 -0.0001 20.8797 0.0000 -21.4240 -12.8924 -17.8883 -0.0000 -0.0000 0.0000
